# xmcd
#
# Track frame offsets: 
#        150
#        13040
#        25464
#        40597
#        52054
#        66709
#        82444
#        98644
#        117966
#        134681
#        150635
#        167009
#
# Disc length: 2425 seconds
#
# Revision: 6
# Processed by: cddbd v1.5.2PL0 Copyright (c) Steve Scherf et al.
# Submitted via: ExactAudioCopy v1.0b3
#
DISCID=aa09770c
DTITLE=Jimi Hendrix Experience - Smash Hits
DYEAR=2002
DGENRE=Rock
TTITLE0=Purple Haze
TTITLE1=Fire
TTITLE2=The Wind Cries Mary
TTITLE3=Can You See Me
TTITLE4=51st Anniversary
TTITLE5=Hey Joe
TTITLE6=Stone Free
TTITLE7=The Stars that Play with Laughing Sam's Dice
TTITLE8=Manic Depression
TTITLE9=Highway Chile
TTITLE10=Burning of the Midnight Lamp
TTITLE11=Foxy Lady
EXTD=YEAR: 2002
EXTT0=
EXTT1=
EXTT2=
EXTT3=
EXTT4=
EXTT5=
EXTT6=
EXTT7=
EXTT8=
EXTT9=
EXTT10=
EXTT11=
PLAYORDER=
